<?xml version="1.0" encoding="utf-8"?>
<!DOCTYPE svg PUBLIC "-//W3C//DTD SVG 1.1//EN" "http://www.w3.org/Graphics/SVG/1.1/DTD/svg11.dtd">
<svg version="1.1" xmlns="http://www.w3.org/2000/svg" xmlns:xlink="http://www.w3.org/1999/xlink" x="0px" y="0px"
	 width="250.667px" height="221.301px" viewBox="0 0 250.667 221.301" enable-background="new 0 0 250.667 221.301"
	 xml:space="preserve">
<g id="illarra">
	<path fill-rule="evenodd" clip-rule="evenodd" d="M186.125,69.303c-10.363-25.605,2.609-54.046,27.926-55.11
		C291.007,10.964,216.592,144.606,186.125,69.303z M206.071,82.021c34.734,6.374,44.08-54.128,11.971-59.349
		C193.841,23.509,184.942,70.09,206.071,82.021z"/>
	<path fill-rule="evenodd" clip-rule="evenodd" fill="#8DC63F" d="M218.042,22.671c32.109,5.221,22.764,65.723-11.971,59.349
		C184.942,70.09,193.841,23.509,218.042,22.671z"/>
	<path fill-rule="evenodd" clip-rule="evenodd" d="M169.715,66.323c19.152,70.347-66.266,76.744-78.817,37.22
		C77.615,61.72,138.078,24.29,169.715,66.323z M104.808,103.543c12.052,8.7,44.268,6.538,51-4.653
		c2.541-18.556,2.541-14.013,0-32.567C127.126,49.184,89.775,76.173,104.808,103.543z"/>
	<path fill-rule="evenodd" clip-rule="evenodd" fill="#8DC63F" d="M155.808,66.323c2.541,18.554,2.541,14.011,0,32.567
		c-6.732,11.191-38.949,13.353-51,4.653C89.775,76.173,127.126,49.184,155.808,66.323z"/>
	<path fill-rule="evenodd" clip-rule="evenodd" d="M7.577,154.674C-20.578,84.347,86.36,91.172,77.12,140.72
		C72.068,167.833,35.168,171.922,7.577,154.674z M30.757,154.674c22.111,5.124,28.083-5.942,37.092-13.955
		C63.111,92.24-12.543,120.332,30.757,154.674z"/>
	<path fill-rule="evenodd" clip-rule="evenodd" fill="#CBDB2A" d="M67.85,140.72c-9.009,8.013-14.981,19.078-37.092,13.955
		C-12.543,120.332,63.111,92.24,67.85,140.72z"/>
	<path fill-rule="evenodd" clip-rule="evenodd" d="M53.777,58.555c-62.377-89.354,117.607-57.539,60.272,0
		C102.011,70.635,78.705,70.258,53.777,58.555z"/>
	<path fill-rule="evenodd" clip-rule="evenodd" fill="#0DB14B" d="M58.413,35.292c9.959,7.065,13.855,20.218,32.455,18.609
		c1.208-6.543,10.17-5.303,13.908-9.305C112.375,8.696,57.78,0.889,58.413,35.292z"/>
	<path d="M119.857,137.444c-1.268,16.268-1.901,28.644-1.901,37.131c0,4.95,0.181,9.281,0.537,12.996
		c2.328-1.769,8.944-2.565,19.861-2.389c-0.537-11.144-0.983-19.456-1.339-24.939c0.168-7.782,0.834-13.708,2.005-17.776
		c0.523-1.033,0.702-7.944,0.537-20.691h6.247c-1.924,19.53-2.739,34.651-2.438,45.338c0,1.414,0.281,3.578,0.838,6.498
		c0.56,2.913,0.837,5.077,0.837,6.493c0,20.648,0,31.322,0,32.083c0,0.066,0,0.086,0,0.062c0,0.024,0,0.003,0-0.062
		c5.549,0.527,8.666,1.587,9.358,3.179l-2.758,1.062c-0.185,1.237-2.48,1.857-6.897,1.857c-6.402,0-8.977-0.088-7.729-0.265
		l0.802-1.06l-1.604-0.529l1.604-0.792l-0.802-0.531c0.045-3.001,0.045-5.294,0-6.88l0.269-3.175
		c0.533-5.471,0.715-9.528,0.533-12.173c-6.797,1.762-13.238,2.38-19.324,1.852c0.181,10.585,0,16.761-0.537,18.523
		c0.582,0.529,0.87,1.06,0.87,1.59c0,0.527-0.714,1.015-2.137,1.456c-1.429,0.439-2.231,0.925-2.412,1.456
		c-8.556,0.705-13.633,0.88-15.243,0.529h0.802h-0.802h-2.674l2.939-1.861l-1.067-0.267l2.141-1.065l-1.338-0.533
		c1.073-0.709,3.124-1.371,6.15-1.992c3.033-0.625,4.999-1.199,5.885-1.73l-0.265-0.53c-0.355-12.055-0.537-21.098-0.537-27.124
		c-1.245-19.854-0.889-35.366,1.07-46.535c0.56-5.335,1.031-10.283,1.433-14.873h8.271
		C120.707,126.315,120.316,131.534,119.857,137.444z"/>
	<path d="M142.091,86.1c0-1.697,0.087-2.639,0.265-2.816c-1.248-1.788-2.587-2.595-4.013-2.416l-1.607,1.342
		c-0.175,1.251,0.983,3.22,3.479,5.904C141.463,88.473,142.091,87.802,142.091,86.1z"/>
</g>
</svg>
